<svg width="89" height="85" viewBox="0 0 89 85" fill="none" xmlns="http://www.w3.org/2000/svg">
<mask id="path-1-inside-1_85_216" fill="white">
<path d="M31.7067 1.8662C33.055 1.8662 35.0005 3.08855 36.8807 4.26892C39.2834 5.77588 41.7655 7.33882 44.3222 7.33882C46.8788 7.33882 49.3609 5.78054 51.7636 4.26892C53.6438 3.08855 55.5893 1.8662 56.9376 1.8662C57.1243 1.8662 57.2922 1.88952 57.4462 1.94084C58.8598 2.39806 59.9049 5.0294 60.8333 7.35281C61.8551 9.9235 62.9141 12.5782 64.8923 14.0151C66.8938 15.4708 69.7677 15.6621 72.5484 15.8487C75.0211 16.012 77.8251 16.1986 78.6742 17.3696C79.5093 18.5173 78.8281 21.214 78.2309 23.5981C77.5498 26.318 76.8406 29.1267 77.6151 31.5061C78.3569 33.7922 80.531 35.5977 82.6352 37.3426C84.5807 38.9569 86.7828 40.7857 86.7828 42.3253C86.7828 43.8649 84.5807 45.6938 82.6352 47.3081C80.531 49.053 78.3569 50.8585 77.6151 53.1446C76.8406 55.524 77.5498 58.3373 78.2309 61.0526C78.8281 63.4367 79.5093 66.138 78.6742 67.2811C77.8204 68.4521 75.0211 68.6387 72.5484 68.802C69.7677 68.9886 66.8938 69.1799 64.8923 70.6355C62.9188 72.0725 61.8597 74.7272 60.8333 77.2979C59.9096 79.6213 58.8598 82.2526 57.4462 82.7098C57.2922 82.7611 57.1243 82.7845 56.9376 82.7845C55.5893 82.7845 53.6438 81.5621 51.7636 80.3817C49.3609 78.8748 46.8788 77.3119 44.3222 77.3119C41.7655 77.3119 39.2834 78.8701 36.8807 80.3817C35.0005 81.5621 33.055 82.7845 31.7067 82.7845C31.5201 82.7845 31.3521 82.7611 31.1981 82.7098C29.7845 82.2526 28.7394 79.6213 27.811 77.2979C26.7892 74.7272 25.7302 72.0725 23.752 70.6355C21.7505 69.1799 18.8766 68.9886 16.0959 68.802C13.6232 68.6387 10.8193 68.4521 9.97015 67.2811C9.13503 66.1333 9.81619 63.4367 10.4134 61.0526C11.0945 58.3326 11.8037 55.524 11.0292 53.1446C10.2874 50.8585 8.11329 49.053 6.00915 47.3081C4.06364 45.6938 1.86153 43.8649 1.86153 42.3253C1.86153 40.7857 4.06364 38.9569 6.00915 37.3426C8.11329 35.5977 10.2874 33.7922 11.0292 31.5061C11.8037 29.1267 11.0945 26.3134 10.4134 23.5981C9.81619 21.214 9.13503 18.5127 9.97015 17.3696C10.8239 16.1986 13.6232 16.012 16.0959 15.8487C18.8766 15.6621 21.7505 15.4708 23.752 14.0151C25.7255 12.5782 26.7846 9.9235 27.811 7.35281C28.7348 5.0294 29.7845 2.39806 31.1981 1.94084C31.3521 1.88952 31.5201 1.8662 31.7067 1.8662ZM31.7067 0C31.3334 0 30.9742 0.0513204 30.6243 0.167958C26.528 1.49762 26.0708 10.0261 22.6603 12.5082C19.2172 15.0135 10.9686 12.8348 8.4632 16.2732C5.98116 19.6837 10.586 26.8406 9.25633 30.9369C7.97332 34.8885 0 37.9538 0 42.33C0 46.7062 7.97799 49.7715 9.25633 53.7231C10.586 57.8194 5.98116 64.9763 8.4632 68.3868C10.9686 71.8299 19.2172 69.6464 22.6603 72.1518C26.0708 74.6339 26.528 83.1624 30.6243 84.492C30.9742 84.604 31.3381 84.66 31.7067 84.66C35.5184 84.66 40.3332 79.1874 44.3222 79.1874C48.3112 79.1874 53.1259 84.66 56.9376 84.66C57.3109 84.66 57.6701 84.6087 58.02 84.492C62.1163 83.1624 62.5736 74.6339 65.984 72.1518C69.4272 69.6464 77.6758 71.8252 80.1811 68.3868C82.6632 64.9763 78.0583 57.8194 79.388 53.7231C80.671 49.7715 88.6443 46.7062 88.6443 42.33C88.6443 37.9538 80.6663 34.8885 79.388 30.9369C78.0583 26.8406 82.6632 19.6837 80.1811 16.2732C77.6758 12.8301 69.4272 15.0135 65.984 12.5082C62.5736 10.0261 62.1163 1.49762 58.02 0.167958C57.6701 0.0513204 57.3109 0 56.9376 0C53.1259 0 48.3112 5.47262 44.3222 5.47262C40.3332 5.47262 35.5184 0 31.7067 0V0Z"/>
</mask>
<path d="M31.7067 1.8662C33.055 1.8662 35.0005 3.08855 36.8807 4.26892C39.2834 5.77588 41.7655 7.33882 44.3222 7.33882C46.8788 7.33882 49.3609 5.78054 51.7636 4.26892C53.6438 3.08855 55.5893 1.8662 56.9376 1.8662C57.1243 1.8662 57.2922 1.88952 57.4462 1.94084C58.8598 2.39806 59.9049 5.0294 60.8333 7.35281C61.8551 9.9235 62.9141 12.5782 64.8923 14.0151C66.8938 15.4708 69.7677 15.6621 72.5484 15.8487C75.0211 16.012 77.8251 16.1986 78.6742 17.3696C79.5093 18.5173 78.8281 21.214 78.2309 23.5981C77.5498 26.318 76.8406 29.1267 77.6151 31.5061C78.3569 33.7922 80.531 35.5977 82.6352 37.3426C84.5807 38.9569 86.7828 40.7857 86.7828 42.3253C86.7828 43.8649 84.5807 45.6938 82.6352 47.3081C80.531 49.053 78.3569 50.8585 77.6151 53.1446C76.8406 55.524 77.5498 58.3373 78.2309 61.0526C78.8281 63.4367 79.5093 66.138 78.6742 67.2811C77.8204 68.4521 75.0211 68.6387 72.5484 68.802C69.7677 68.9886 66.8938 69.1799 64.8923 70.6355C62.9188 72.0725 61.8597 74.7272 60.8333 77.2979C59.9096 79.6213 58.8598 82.2526 57.4462 82.7098C57.2922 82.7611 57.1243 82.7845 56.9376 82.7845C55.5893 82.7845 53.6438 81.5621 51.7636 80.3817C49.3609 78.8748 46.8788 77.3119 44.3222 77.3119C41.7655 77.3119 39.2834 78.8701 36.8807 80.3817C35.0005 81.5621 33.055 82.7845 31.7067 82.7845C31.5201 82.7845 31.3521 82.7611 31.1981 82.7098C29.7845 82.2526 28.7394 79.6213 27.811 77.2979C26.7892 74.7272 25.7302 72.0725 23.752 70.6355C21.7505 69.1799 18.8766 68.9886 16.0959 68.802C13.6232 68.6387 10.8193 68.4521 9.97015 67.2811C9.13503 66.1333 9.81619 63.4367 10.4134 61.0526C11.0945 58.3326 11.8037 55.524 11.0292 53.1446C10.2874 50.8585 8.11329 49.053 6.00915 47.3081C4.06364 45.6938 1.86153 43.8649 1.86153 42.3253C1.86153 40.7857 4.06364 38.9569 6.00915 37.3426C8.11329 35.5977 10.2874 33.7922 11.0292 31.5061C11.8037 29.1267 11.0945 26.3134 10.4134 23.5981C9.81619 21.214 9.13503 18.5127 9.97015 17.3696C10.8239 16.1986 13.6232 16.012 16.0959 15.8487C18.8766 15.6621 21.7505 15.4708 23.752 14.0151C25.7255 12.5782 26.7846 9.9235 27.811 7.35281C28.7348 5.0294 29.7845 2.39806 31.1981 1.94084C31.3521 1.88952 31.5201 1.8662 31.7067 1.8662ZM31.7067 0C31.3334 0 30.9742 0.0513204 30.6243 0.167958C26.528 1.49762 26.0708 10.0261 22.6603 12.5082C19.2172 15.0135 10.9686 12.8348 8.4632 16.2732C5.98116 19.6837 10.586 26.8406 9.25633 30.9369C7.97332 34.8885 0 37.9538 0 42.33C0 46.7062 7.97799 49.7715 9.25633 53.7231C10.586 57.8194 5.98116 64.9763 8.4632 68.3868C10.9686 71.8299 19.2172 69.6464 22.6603 72.1518C26.0708 74.6339 26.528 83.1624 30.6243 84.492C30.9742 84.604 31.3381 84.66 31.7067 84.66C35.5184 84.66 40.3332 79.1874 44.3222 79.1874C48.3112 79.1874 53.1259 84.66 56.9376 84.66C57.3109 84.66 57.6701 84.6087 58.02 84.492C62.1163 83.1624 62.5736 74.6339 65.984 72.1518C69.4272 69.6464 77.6758 71.8252 80.1811 68.3868C82.6632 64.9763 78.0583 57.8194 79.388 53.7231C80.671 49.7715 88.6443 46.7062 88.6443 42.33C88.6443 37.9538 80.6663 34.8885 79.388 30.9369C78.0583 26.8406 82.6632 19.6837 80.1811 16.2732C77.6758 12.8301 69.4272 15.0135 65.984 12.5082C62.5736 10.0261 62.1163 1.49762 58.02 0.167958C57.6701 0.0513204 57.3109 0 56.9376 0C53.1259 0 48.3112 5.47262 44.3222 5.47262C40.3332 5.47262 35.5184 0 31.7067 0V0Z" fill="white"/>
<path d="M36.8807 4.26892L36.7212 4.523L36.7213 4.52307L36.8807 4.26892ZM51.7636 4.26892L51.6041 4.01484L51.6039 4.015L51.7636 4.26892ZM57.4462 1.94084L57.3513 2.22546L57.3539 2.22629L57.4462 1.94084ZM60.8333 7.35281L61.1121 7.24201L61.1119 7.24149L60.8333 7.35281ZM64.8923 14.0151L65.0688 13.7725L65.0686 13.7724L64.8923 14.0151ZM72.5484 15.8487L72.5283 16.148L72.5286 16.148L72.5484 15.8487ZM78.6742 17.3696L78.4313 17.5457L78.4316 17.5461L78.6742 17.3696ZM78.2309 23.5981L77.9399 23.5252V23.5252L78.2309 23.5981ZM77.6151 31.5061L77.9005 31.4135L77.9004 31.4132L77.6151 31.5061ZM82.6352 37.3426L82.8267 37.1117L82.8267 37.1117L82.6352 37.3426ZM82.6352 47.3081L82.8267 47.539L82.8267 47.539L82.6352 47.3081ZM77.6151 53.1446L77.9004 53.2375L77.9005 53.2372L77.6151 53.1446ZM78.2309 61.0526L78.522 60.9797L78.5219 60.9796L78.2309 61.0526ZM78.6742 67.2811L78.4319 67.1041L78.4318 67.1043L78.6742 67.2811ZM72.5484 68.802L72.5286 68.5026L72.5283 68.5027L72.5484 68.802ZM64.8923 70.6355L64.7159 70.3929L64.7157 70.393L64.8923 70.6355ZM60.8333 77.2979L60.5547 77.1866L60.5546 77.187L60.8333 77.2979ZM57.4462 82.7098L57.3539 82.4244L57.3513 82.4252L57.4462 82.7098ZM51.7636 80.3817L51.9231 80.1277L51.923 80.1276L51.7636 80.3817ZM36.8807 80.3817L37.0402 80.6358L37.0405 80.6357L36.8807 80.3817ZM31.1981 82.7098L31.293 82.4252L31.2905 82.4244L31.1981 82.7098ZM27.811 77.2979L27.5322 77.4087L27.5324 77.4092L27.811 77.2979ZM23.752 70.6355L23.5756 70.8782L23.5757 70.8783L23.752 70.6355ZM16.0959 68.802L16.116 68.5027L16.1157 68.5026L16.0959 68.802ZM9.97015 67.2811L10.213 67.1049L10.2127 67.1045L9.97015 67.2811ZM10.4134 61.0526L10.7044 61.1255L10.7044 61.1255L10.4134 61.0526ZM11.0292 53.1446L10.7439 53.2372L10.744 53.2375L11.0292 53.1446ZM6.00915 47.3081L5.81759 47.539L5.81765 47.539L6.00915 47.3081ZM6.00915 37.3426L5.81765 37.1117L5.81759 37.1117L6.00915 37.3426ZM11.0292 31.5061L10.744 31.4132L10.7439 31.4135L11.0292 31.5061ZM10.4134 23.5981L10.1224 23.6709L10.1224 23.6711L10.4134 23.5981ZM9.97015 17.3696L10.2124 17.5466L10.2126 17.5464L9.97015 17.3696ZM16.0959 15.8487L16.1157 16.148L16.116 16.148L16.0959 15.8487ZM23.752 14.0151L23.9285 14.2578L23.9286 14.2577L23.752 14.0151ZM27.811 7.35281L28.0896 7.46406L28.0898 7.46365L27.811 7.35281ZM31.1981 1.94084L31.2905 2.2263L31.293 2.22545L31.1981 1.94084ZM31.7067 0H32.0067V-0.3H31.7067V0ZM30.6243 0.167958L30.7169 0.45331L30.7191 0.452563L30.6243 0.167958ZM22.6603 12.5082L22.8368 12.7508L22.8368 12.7507L22.6603 12.5082ZM8.4632 16.2732L8.22074 16.0966L8.22064 16.0967L8.4632 16.2732ZM9.25633 30.9369L9.54167 31.0295L9.54168 31.0295L9.25633 30.9369ZM9.25633 53.7231L8.9709 53.8155L8.97099 53.8158L9.25633 53.7231ZM8.4632 68.3868L8.70578 68.2103L8.70576 68.2102L8.4632 68.3868ZM22.6603 72.1518L22.8368 71.9092L22.8368 71.9092L22.6603 72.1518ZM30.6243 84.492L30.5317 84.7774L30.5328 84.7778L30.6243 84.492ZM58.02 84.492L57.9274 84.2067L57.9252 84.2074L58.02 84.492ZM65.984 72.1518L65.8075 71.9092L65.8075 71.9092L65.984 72.1518ZM80.1811 68.3868L80.4236 68.5634L80.4237 68.5633L80.1811 68.3868ZM79.388 53.7231L79.1027 53.6305L79.1026 53.6305L79.388 53.7231ZM79.388 30.9369L79.6734 30.8445L79.6733 30.8442L79.388 30.9369ZM80.1811 16.2732L79.9385 16.4497L79.9386 16.4498L80.1811 16.2732ZM65.984 12.5082L65.8075 12.7507L65.8075 12.7508L65.984 12.5082ZM58.02 0.167958L57.9252 0.452572L57.9274 0.453301L58.02 0.167958ZM31.7067 0H31.4067V0.3H31.7067V0ZM31.7067 2.1662C32.3049 2.1662 33.0739 2.44205 33.9581 2.89226C34.8337 3.3381 35.7782 3.93097 36.7212 4.523L37.0402 4.01484C36.1031 3.42651 35.1346 2.81802 34.2304 2.35758C33.3347 1.90153 32.4568 1.5662 31.7067 1.5662V2.1662ZM36.7213 4.52307C37.9192 5.2744 39.1565 6.05244 40.4168 6.64081C41.6784 7.2298 42.9833 7.63882 44.3222 7.63882V7.03882C43.1044 7.03882 41.8899 6.66636 40.6706 6.09714C39.45 5.52731 38.2449 4.7704 37.0401 4.01477L36.7213 4.52307ZM44.3222 7.63882C45.6609 7.63882 46.9657 7.23107 48.2274 6.64261C49.4879 6.05475 50.7251 5.2767 51.9234 4.52285L51.6039 4.015C50.3994 4.77277 49.1942 5.52966 47.9738 6.09884C46.7547 6.66743 45.5401 7.03882 44.3222 7.03882V7.63882ZM51.9231 4.523C52.8662 3.93097 53.8106 3.3381 54.6862 2.89226C55.5704 2.44205 56.3394 2.1662 56.9376 2.1662V1.5662C56.1875 1.5662 55.3096 1.90153 54.414 2.35758C53.5097 2.81802 52.5413 3.42651 51.6041 4.01484L51.9231 4.523ZM56.9376 2.1662C57.0993 2.1662 57.2342 2.1864 57.3513 2.22545L57.5411 1.65624C57.3503 1.59265 57.1492 1.5662 56.9376 1.5662V2.1662ZM57.3539 2.22629C57.6385 2.31835 57.9264 2.5277 58.2178 2.85286C58.5082 3.17681 58.7878 3.5997 59.059 4.09179C59.6022 5.07768 60.0886 6.29755 60.5548 7.46413L61.1119 7.24149C60.6496 6.08466 60.1493 4.82716 59.5845 3.80222C59.3016 3.28889 58.9968 2.82301 58.6646 2.45239C58.3335 2.08297 57.9607 1.79195 57.5385 1.6554L57.3539 2.22629ZM60.5545 7.46362C61.0641 8.74557 61.5909 10.0697 62.2412 11.2536C62.892 12.4383 63.6772 13.5033 64.716 14.2579L65.0686 13.7724C64.1293 13.09 63.3958 12.1092 62.7671 10.9647C62.1379 9.81925 61.6243 8.53074 61.1121 7.24201L60.5545 7.46362ZM64.7159 14.2578C65.7661 15.0216 67.0327 15.445 68.3715 15.7024C69.7092 15.9596 71.1419 16.055 72.5283 16.148L72.5685 15.5493C71.1743 15.4558 69.7797 15.3622 68.4848 15.1132C67.1911 14.8644 66.02 14.4643 65.0688 13.7725L64.7159 14.2578ZM72.5286 16.148C73.7698 16.23 75.0692 16.3166 76.1638 16.5259C76.7102 16.6304 77.1935 16.7634 77.586 16.9356C77.9802 17.1087 78.262 17.3122 78.4313 17.5457L78.917 17.1935C78.6618 16.8415 78.2746 16.5826 77.8271 16.3862C77.3777 16.189 76.8463 16.0455 76.2765 15.9366C75.1386 15.719 73.7997 15.6307 72.5681 15.5493L72.5286 16.148ZM78.4316 17.5461C78.597 17.7735 78.7012 18.0982 78.7426 18.521C78.7839 18.9417 78.7608 19.4365 78.692 19.9827C78.5542 21.0768 78.2398 22.3281 77.9399 23.5252L78.522 23.6709C78.8193 22.4839 79.1441 21.1949 79.2873 20.0577C79.3591 19.4883 79.387 18.9447 79.3398 18.4625C79.2927 17.9824 79.1689 17.5396 78.9167 17.1931L78.4316 17.5461ZM77.9399 23.5252C77.6003 24.8812 77.2477 26.2818 77.0794 27.643C76.911 29.0054 76.9237 30.3513 77.3298 31.5989L77.9004 31.4132C77.532 30.2814 77.5121 29.0333 77.6749 27.7166C77.8379 26.3986 78.1804 25.0349 78.522 23.6709L77.9399 23.5252ZM77.3298 31.5987C77.7197 32.8005 78.481 33.8611 79.3958 34.8329C80.31 35.804 81.3945 36.7034 82.4437 37.5735L82.8267 37.1117C81.7717 36.2368 80.717 35.361 79.8327 34.4216C78.949 33.4829 78.2523 32.4977 77.9005 31.4135L77.3298 31.5987ZM82.4436 37.5735C83.4202 38.3837 84.441 39.2318 85.2191 40.0665C85.6074 40.4831 85.9269 40.8877 86.148 41.2735C86.3698 41.6603 86.4828 42.0111 86.4828 42.3253H87.0828C87.0828 41.8698 86.9205 41.4146 86.6686 40.9751C86.416 40.5345 86.0634 40.0923 85.658 39.6574C84.8486 38.7892 83.7957 37.9157 82.8267 37.1117L82.4436 37.5735ZM86.4828 42.3253C86.4828 42.6396 86.3698 42.9903 86.148 43.3772C85.9269 43.763 85.6074 44.1676 85.2191 44.5842C84.441 45.4188 83.4202 46.2669 82.4436 47.0772L82.8267 47.539C83.7957 46.735 84.8486 45.8615 85.658 44.9933C86.0634 44.5584 86.416 44.1162 86.6686 43.6756C86.9205 43.2361 87.0828 42.7809 87.0828 42.3253H86.4828ZM82.4437 47.0772C81.3945 47.9472 80.31 48.8466 79.3958 49.8178C78.481 50.7895 77.7197 51.8502 77.3298 53.052L77.9005 53.2372C78.2523 52.1529 78.949 51.1678 79.8327 50.229C80.717 49.2896 81.7717 48.4138 82.8267 47.539L82.4437 47.0772ZM77.3298 53.0518C76.9237 54.2994 76.911 55.6465 77.0794 57.0094C77.2477 58.3712 77.6003 59.7718 77.94 61.1256L78.5219 60.9796C78.1804 59.6181 77.8378 58.2544 77.6749 56.9358C77.5121 55.6185 77.532 54.3692 77.9004 53.2375L77.3298 53.0518ZM77.9399 61.1255C78.2398 62.3225 78.5542 63.575 78.692 64.6697C78.7608 65.2162 78.7839 65.7111 78.7426 66.1316C78.7012 66.5543 78.597 66.8781 78.4319 67.1041L78.9164 67.458C79.1689 67.1125 79.2927 66.67 79.3398 66.1902C79.387 65.7082 79.3591 65.1645 79.2873 64.5947C79.1441 63.457 78.8193 62.1668 78.522 60.9797L77.9399 61.1255ZM78.4318 67.1043C78.2612 67.3383 77.9786 67.542 77.584 67.715C77.1913 67.8873 76.7081 68.0203 76.162 68.1248C75.0681 68.3341 73.7697 68.4207 72.5286 68.5026L72.5681 69.1013C73.7997 69.02 75.1374 68.9317 76.2747 68.7141C76.8443 68.6051 77.3755 68.4617 77.8251 68.2645C78.2728 68.0681 78.6603 67.8093 78.9166 67.4578L78.4318 67.1043ZM72.5283 68.5027C71.1419 68.5957 69.7092 68.6911 68.3715 68.9483C67.0327 69.2057 65.7661 69.6291 64.7159 70.3929L65.0688 70.8782C66.02 70.1863 67.1911 69.7863 68.4848 69.5375C69.7797 69.2885 71.1743 69.1949 72.5685 69.1013L72.5283 68.5027ZM64.7157 70.393C63.6794 71.1476 62.8954 72.2126 62.2447 73.3971C61.5945 74.5807 61.0665 75.9048 60.5547 77.1866L61.1119 77.4091C61.6266 76.1202 62.1413 74.8316 62.7706 73.686C63.3994 72.5413 64.1318 71.5604 65.0689 70.8781L64.7157 70.393ZM60.5546 77.187C60.0909 78.3531 59.6045 79.5731 59.0608 80.5588C58.7894 81.0508 58.5093 81.4737 58.2186 81.7977C57.9268 82.1229 57.6386 82.3323 57.3539 82.4244L57.5385 82.9953C57.9606 82.8587 58.3337 82.5678 58.6652 82.1984C58.9977 81.8278 59.303 81.3619 59.5861 80.8486C60.1516 79.8234 60.652 78.566 61.1121 77.4087L60.5546 77.187ZM57.3513 82.4252C57.2342 82.4643 57.0993 82.4845 56.9376 82.4845V83.0845C57.1492 83.0845 57.3503 83.058 57.5411 82.9944L57.3513 82.4252ZM56.9376 82.4845C56.3394 82.4845 55.5704 82.2086 54.6862 81.7584C53.8106 81.3126 52.8662 80.7197 51.9231 80.1277L51.6041 80.6358C52.5413 81.2242 53.5097 81.8326 54.414 82.2931C55.3096 82.7491 56.1875 83.0845 56.9376 83.0845V82.4845ZM51.923 80.1276C50.7251 79.3763 49.4878 78.5982 48.2275 78.0099C46.9659 77.4209 45.661 77.0119 44.3222 77.0119V77.6119C45.54 77.6119 46.7545 77.9843 47.9737 78.5535C49.1943 79.1234 50.3994 79.8803 51.6042 80.6359L51.923 80.1276ZM44.3222 77.0119C42.9834 77.0119 41.6786 77.4196 40.4169 78.0081C39.1564 78.5959 37.9192 79.374 36.721 80.1278L37.0405 80.6357C38.2449 79.8779 39.4501 79.121 40.6705 78.5518C41.8896 77.9832 43.1042 77.6119 44.3222 77.6119V77.0119ZM36.7212 80.1277C35.7782 80.7197 34.8337 81.3126 33.9581 81.7584C33.0739 82.2086 32.3049 82.4845 31.7067 82.4845V83.0845C32.4568 83.0845 33.3347 82.7491 34.2304 82.2931C35.1346 81.8326 36.1031 81.2242 37.0402 80.6358L36.7212 80.1277ZM31.7067 82.4845C31.545 82.4845 31.4102 82.4643 31.293 82.4252L31.1033 82.9944C31.294 83.058 31.4951 83.0845 31.7067 83.0845V82.4845ZM31.2905 82.4244C31.0058 82.3323 30.7179 82.123 30.4265 81.7978C30.1361 81.4739 29.8565 81.051 29.5854 80.5589C29.0421 79.573 28.5557 78.3531 28.0896 77.1865L27.5324 77.4092C27.9947 78.566 28.4951 79.8235 29.0599 80.8484C29.3427 81.3618 29.6475 81.8277 29.9797 82.1983C30.3108 82.5677 30.6836 82.8587 31.1058 82.9953L31.2905 82.4244ZM28.0898 77.187C27.5803 75.9051 27.0534 74.5809 26.4031 73.3971C25.7523 72.2124 24.9671 71.1474 23.9283 70.3928L23.5757 70.8783C24.5151 71.5606 25.2485 72.5414 25.8772 73.686C26.5064 74.8314 27.02 76.1199 27.5322 77.4087L28.0898 77.187ZM23.9285 70.3929C22.8782 69.6291 21.6116 69.2057 20.2728 68.9483C18.9351 68.6911 17.5025 68.5957 16.116 68.5027L16.0759 69.1013C17.47 69.1949 18.8647 69.2885 20.1595 69.5375C21.4532 69.7863 22.6243 70.1863 23.5756 70.8782L23.9285 70.3929ZM16.1157 68.5026C14.8746 68.4207 13.5751 68.3341 12.4805 68.1248C11.9341 68.0203 11.4509 67.8873 11.0584 67.7151C10.6641 67.542 10.3823 67.3384 10.213 67.1049L9.72728 67.4572C9.98253 67.8092 10.3697 68.0681 10.8172 68.2645C11.2666 68.4617 11.798 68.6051 12.3679 68.7141C13.5058 68.9317 14.8446 69.02 16.0762 69.1013L16.1157 68.5026ZM10.2127 67.1045C10.0473 66.8772 9.94312 66.5525 9.90168 66.1297C9.86044 65.7089 9.88349 65.2141 9.9523 64.668C10.0901 63.5739 10.4045 62.3225 10.7044 61.1255L10.1224 60.9797C9.82502 62.1668 9.50026 63.4558 9.357 64.593C9.28526 65.1624 9.25728 65.706 9.30454 66.1882C9.3516 66.6683 9.47546 67.1111 9.72758 67.4576L10.2127 67.1045ZM10.7044 61.1255C11.044 59.7695 11.3966 58.3689 11.5649 57.0077C11.7333 55.6453 11.7206 54.2994 11.3145 53.0518L10.744 53.2375C11.1123 54.3692 11.1322 55.6174 10.9694 56.9341C10.8065 58.2521 10.4639 59.6158 10.1224 60.9797L10.7044 61.1255ZM11.3146 53.052C10.9246 51.8502 10.1633 50.7895 9.24849 49.8178C8.33428 48.8466 7.24985 47.9472 6.20065 47.0772L5.81765 47.539C6.87259 48.4138 7.92729 49.2896 8.81162 50.229C9.69534 51.1678 10.392 52.1529 10.7439 53.2372L11.3146 53.052ZM6.20072 47.0772C5.22416 46.2669 4.20329 45.4188 3.42522 44.5842C3.03688 44.1676 2.71743 43.763 2.49628 43.3772C2.27451 42.9903 2.16153 42.6396 2.16153 42.3253H1.56153C1.56153 42.7809 1.72382 43.2361 1.97574 43.6756C2.22828 44.1162 2.58096 44.5584 2.98633 44.9933C3.7957 45.8615 4.84863 46.735 5.81759 47.539L6.20072 47.0772ZM2.16153 42.3253C2.16153 42.0111 2.27451 41.6603 2.49628 41.2735C2.71743 40.8877 3.03688 40.4831 3.42522 40.0665C4.20329 39.2318 5.22416 38.3837 6.20072 37.5735L5.81759 37.1117C4.84863 37.9157 3.7957 38.7892 2.98633 39.6574C2.58096 40.0923 2.22828 40.5345 1.97574 40.9751C1.72382 41.4146 1.56153 41.8698 1.56153 42.3253H2.16153ZM6.20065 37.5735C7.24985 36.7034 8.33428 35.804 9.24849 34.8329C10.1633 33.8611 10.9246 32.8005 11.3146 31.5987L10.7439 31.4135C10.392 32.4977 9.69534 33.4829 8.81162 34.4216C7.92729 35.361 6.87259 36.2368 5.81765 37.1117L6.20065 37.5735ZM11.3145 31.5989C11.7206 30.3513 11.7333 29.0042 11.5649 27.6412C11.3966 26.2794 11.044 24.8789 10.7044 23.5251L10.1224 23.6711C10.4639 25.0325 10.8065 26.3963 10.9694 27.7148C11.1322 29.0322 11.1123 30.2814 10.744 31.4132L11.3145 31.5989ZM10.7044 23.5252C10.4046 22.3282 10.0901 21.0757 9.9523 19.981C9.88349 19.4345 9.86045 18.9395 9.90168 18.5191C9.94313 18.0964 10.0473 17.7726 10.2124 17.5466L9.72792 17.1926C9.47547 17.5382 9.35159 17.9807 9.30454 18.4605C9.25728 18.9425 9.28526 19.4862 9.357 20.0559C9.50026 21.1937 9.82501 22.4838 10.1224 23.6709L10.7044 23.5252ZM10.2126 17.5464C10.3831 17.3124 10.6658 17.1087 11.0603 16.9356C11.453 16.7634 11.9362 16.6304 12.4823 16.5259C13.5763 16.3166 14.8746 16.23 16.1157 16.148L16.0762 15.5493C14.8446 15.6307 13.5069 15.719 12.3696 15.9366C11.8 16.0456 11.2688 16.189 10.8193 16.3862C10.3715 16.5826 9.98406 16.8413 9.72774 17.1929L10.2126 17.5464ZM16.116 16.148C17.5025 16.055 18.9351 15.9596 20.2728 15.7024C21.6116 15.445 22.8782 15.0216 23.9285 14.2578L23.5756 13.7725C22.6243 14.4643 21.4532 14.8644 20.1595 15.1132C18.8647 15.3622 17.47 15.4558 16.0759 15.5493L16.116 16.148ZM23.9286 14.2577C24.965 13.503 25.7489 12.4381 26.3996 11.2536C27.0498 10.0699 27.5778 8.74583 28.0896 7.46406L27.5324 7.24157C27.0177 8.53049 26.503 9.81907 25.8737 10.9647C25.2449 12.1094 24.5126 13.0903 23.5754 13.7726L23.9286 14.2577ZM28.0898 7.46365C28.5534 6.29751 29.0398 5.0776 29.5835 4.09191C29.855 3.59987 30.135 3.17696 30.4257 2.85299C30.7175 2.52779 31.0058 2.31837 31.2905 2.22629L31.1058 1.6554C30.6837 1.79193 30.3106 2.08288 29.9791 2.45226C29.6466 2.82286 29.3414 3.28873 29.0582 3.8021C28.4927 4.82724 27.9923 6.0847 27.5322 7.24198L28.0898 7.46365ZM31.293 2.22545C31.4102 2.1864 31.545 2.1662 31.7067 2.1662V1.5662C31.4951 1.5662 31.294 1.59265 31.1033 1.65624L31.293 2.22545ZM31.7067 -0.3C31.3053 -0.3 30.9136 -0.244715 30.5294 -0.116647L30.7191 0.452563C31.0348 0.347355 31.3615 0.3 31.7067 0.3V-0.3ZM30.5317 -0.117386C29.4159 0.244802 28.5711 1.09016 27.8805 2.14355C27.1903 3.19633 26.6331 4.48977 26.1069 5.79366C25.5765 7.10802 25.0785 8.43037 24.4992 9.5854C23.9193 10.7418 23.2775 11.6879 22.4838 12.2656L22.8368 12.7507C23.7483 12.0874 24.4426 11.0367 25.0356 9.85439C25.6292 8.6707 26.141 7.31243 26.6633 6.01819C27.1898 4.71349 27.7281 3.47037 28.3823 2.47252C29.0361 1.47528 29.7845 0.755946 30.7169 0.453301L30.5317 -0.117386ZM22.4838 12.2656C21.6814 12.8495 20.5774 13.174 19.2956 13.3735C18.0152 13.5727 16.6021 13.6417 15.1889 13.7415C13.7869 13.8406 12.3867 13.9702 11.1761 14.297C9.96498 14.624 8.90425 15.1585 8.22074 16.0966L8.70566 16.4499C9.27484 15.6687 10.1847 15.1862 11.3325 14.8763C12.4806 14.5663 13.8276 14.4392 15.2312 14.34C16.6238 14.2416 18.075 14.1706 19.3879 13.9663C20.6993 13.7622 21.9177 13.4196 22.8368 12.7508L22.4838 12.2656ZM8.22064 16.0967C7.54263 17.0283 7.36384 18.1954 7.42739 19.4424C7.49092 20.6892 7.79928 22.0571 8.1364 23.4199C8.47617 24.7934 8.84469 26.1603 9.04801 27.4441C9.25154 28.7291 9.28139 29.888 8.97099 30.8442L9.54168 31.0295C9.89611 29.9376 9.84898 28.6657 9.64063 27.3502C9.43208 26.0335 9.05383 24.6299 8.71885 23.2758C8.38122 21.911 8.08686 20.5943 8.02661 19.4119C7.96638 18.2299 8.14275 17.2234 8.70576 16.4498L8.22064 16.0967ZM8.971 30.8442C8.67302 31.762 7.97653 32.653 7.05854 33.5547C6.14169 34.4553 5.03987 35.3334 3.95419 36.2444C2.87731 37.1481 1.81939 38.082 1.03114 39.0725C0.242208 40.0639 -0.3 41.1408 -0.3 42.33H0.3C0.3 41.3311 0.754458 40.3838 1.50062 39.4461C2.24746 38.5076 3.26306 37.6077 4.33988 36.704C5.40791 35.8078 6.53999 34.9051 7.47899 33.9828C8.41684 33.0616 9.19815 32.0876 9.54167 31.0295L8.971 30.8442ZM-0.3 42.33C-0.3 43.5192 0.242547 44.5962 1.03184 45.5876C1.82046 46.5781 2.87881 47.5119 3.95597 48.4156C5.04193 49.3266 6.14388 50.2047 7.06048 51.1052C7.97824 52.0069 8.67406 52.8979 8.9709 53.8155L9.54177 53.6308C9.19944 52.5726 8.41863 51.5985 7.48098 50.6772C6.54217 49.7549 5.40994 48.8522 4.3416 47.9559C3.26447 47.0523 2.24843 46.1523 1.50123 45.2138C0.754702 44.2762 0.3 43.3289 0.3 42.33H-0.3ZM8.97099 53.8158C9.28139 54.772 9.25154 55.9309 9.04801 57.2159C8.84469 58.4997 8.47617 59.8666 8.1364 61.2401C7.79928 62.6029 7.49092 63.9708 7.42739 65.2176C7.36384 66.4646 7.54263 67.6317 8.22064 68.5633L8.70576 68.2102C8.14275 67.4366 7.96638 66.4302 8.02661 65.2481C8.08686 64.0657 8.38122 62.749 8.71885 61.3842C9.05383 60.0301 9.43208 58.6265 9.64063 57.3098C9.84898 55.9943 9.89611 54.7224 9.54168 53.6305L8.97099 53.8158ZM8.22062 68.5633C8.90409 69.5026 9.96484 70.0377 11.176 70.3649C12.3868 70.692 13.7869 70.8214 15.189 70.9202C16.6022 71.0198 18.0153 71.0883 19.2957 71.2872C20.5775 71.4863 21.6814 71.8105 22.4838 72.3944L22.8368 71.9092C21.9176 71.2404 20.6992 70.898 19.3878 70.6943C18.0749 70.4904 16.6237 70.4198 15.2312 70.3217C13.8275 70.2228 12.4806 70.0959 11.3325 69.7857C10.1848 69.4756 9.27499 68.9925 8.70578 68.2103L8.22062 68.5633ZM22.4838 72.3944C23.2775 72.9721 23.9193 73.9182 24.4992 75.0746C25.0785 76.2296 25.5765 77.552 26.1069 78.8663C26.6331 80.1702 27.1903 81.4637 27.8805 82.5164C28.5711 83.5698 29.4159 84.4152 30.5317 84.7774L30.7169 84.2067C29.7845 83.9041 29.0361 83.1847 28.3823 82.1875C27.7281 81.1896 27.1898 79.9465 26.6633 78.6418C26.141 77.3476 25.6292 75.9893 25.0356 74.8056C24.4426 73.6233 23.7483 72.5726 22.8368 71.9092L22.4838 72.3944ZM30.5328 84.7778C30.9128 84.8994 31.3076 84.96 31.7067 84.96V84.36C31.3686 84.36 31.0356 84.3087 30.7157 84.2063L30.5328 84.7778ZM31.7067 84.96C32.727 84.96 33.7915 84.5951 34.8567 84.0744C35.9236 83.553 37.0219 82.8594 38.1075 82.1777C39.1996 81.492 40.2799 80.8174 41.3337 80.3131C42.3887 79.8081 43.39 79.4874 44.3222 79.4874V78.8874C43.2598 78.8874 42.1634 79.2507 41.0746 79.7719C39.9846 80.2936 38.8751 80.9873 37.7884 81.6696C36.6952 82.3561 35.6257 83.0307 34.5932 83.5354C33.559 84.0409 32.5922 84.36 31.7067 84.36V84.96ZM44.3222 79.4874C45.2543 79.4874 46.2557 79.8081 47.3106 80.3131C48.3644 80.8174 49.4447 81.492 50.5368 82.1777C51.6224 82.8594 52.7207 83.553 53.7876 84.0744C54.8529 84.5951 55.9173 84.96 56.9376 84.96V84.36C56.0522 84.36 55.0854 84.0409 54.0511 83.5354C53.0186 83.0307 51.9491 82.3561 50.8559 81.6696C49.7693 80.9873 48.6597 80.2936 47.5697 79.7719C46.4809 79.2507 45.3845 78.8874 44.3222 78.8874V79.4874ZM56.9376 84.96C57.339 84.96 57.7307 84.9047 58.1149 84.7766L57.9252 84.2074C57.6096 84.3126 57.2828 84.36 56.9376 84.36V84.96ZM58.1127 84.7774C59.2285 84.4152 60.0732 83.5698 60.7638 82.5164C61.454 81.4637 62.0113 80.1702 62.5374 78.8663C63.0678 77.552 63.5658 76.2296 64.1451 75.0746C64.725 73.9182 65.3668 72.9721 66.1606 72.3944L65.8075 71.9092C64.896 72.5726 64.2017 73.6233 63.6087 74.8056C63.0151 75.9893 62.5033 77.3476 61.981 78.6418C61.4545 79.9465 60.9162 81.1896 60.2621 82.1875C59.6083 83.1847 58.8598 83.9041 57.9274 84.2067L58.1127 84.7774ZM66.1605 72.3944C66.963 71.8105 68.0669 71.486 69.3487 71.2865C70.6291 71.0873 72.0423 71.0183 73.4554 70.9185C74.8574 70.8194 76.2576 70.6898 77.4683 70.363C78.6793 70.036 79.7401 69.5015 80.4236 68.5634L79.9387 68.2101C79.3695 68.9913 78.4596 69.4738 77.3119 69.7837C76.1637 70.0937 74.8167 70.2207 73.4131 70.3199C72.0205 70.4184 70.5693 70.4894 69.2564 70.6937C67.945 70.8978 66.7267 71.2404 65.8075 71.9092L66.1605 72.3944ZM80.4237 68.5633C81.1017 67.6317 81.2805 66.4646 81.2169 65.2176C81.1534 63.9708 80.845 62.6029 80.5079 61.2401C80.1682 59.8666 79.7996 58.4997 79.5963 57.2159C79.3928 55.9309 79.3629 54.772 79.6733 53.8158L79.1026 53.6305C78.7482 54.7224 78.7953 55.9943 79.0037 57.3098C79.2122 58.6265 79.5905 60.0301 79.9255 61.3842C80.2631 62.749 80.5575 64.0657 80.6177 65.2481C80.6779 66.4302 80.5016 67.4366 79.9386 68.2102L80.4237 68.5633ZM79.6733 53.8158C79.9713 52.898 80.6678 52.007 81.5858 51.1053C82.5026 50.2047 83.6045 49.3266 84.6901 48.4156C85.767 47.5119 86.8249 46.578 87.6132 45.5875C88.4021 44.5961 88.9443 43.5192 88.9443 42.33H88.3443C88.3443 43.3289 87.8899 44.2762 87.1437 45.2139C86.3969 46.1524 85.3813 47.0523 84.3044 47.956C83.2364 48.8522 82.1043 49.7549 81.1653 50.6772C80.2275 51.5984 79.4462 52.5724 79.1027 53.6305L79.6733 53.8158ZM88.9443 42.33C88.9443 41.1408 88.4018 40.0638 87.6125 39.0724C86.8239 38.0819 85.7655 37.1481 84.6883 36.2444C83.6024 35.3334 82.5004 34.4553 81.5838 33.5548C80.6661 32.6531 79.9703 31.7621 79.6734 30.8445L79.1026 31.0292C79.4449 32.0874 80.2257 33.0615 81.1633 33.9827C82.1021 34.9051 83.2344 35.8078 84.3027 36.7041C85.3799 37.6077 86.3959 38.5077 87.1431 39.4462C87.8896 40.3838 88.3443 41.3311 88.3443 42.33H88.9443ZM79.6733 30.8442C79.3629 29.888 79.3928 28.7291 79.5963 27.4441C79.7996 26.1603 80.1682 24.7934 80.5079 23.4199C80.845 22.0571 81.1534 20.6892 81.2169 19.4424C81.2805 18.1954 81.1017 17.0283 80.4237 16.0967L79.9386 16.4498C80.5016 17.2234 80.6779 18.2299 80.6177 19.4119C80.5575 20.5943 80.2631 21.911 79.9255 23.2758C79.5905 24.6299 79.2122 26.0335 79.0037 27.3502C78.7953 28.6657 78.7482 29.9376 79.1026 31.0295L79.6733 30.8442ZM80.4237 16.0967C79.7402 15.1574 78.6795 14.6223 77.4683 14.2951C76.2576 13.968 74.8574 13.8386 73.4553 13.7398C72.0422 13.6402 70.629 13.5717 69.3486 13.3728C68.0668 13.1737 66.9629 12.8495 66.1605 12.2656L65.8075 12.7508C66.7267 13.4196 67.9451 13.762 69.2565 13.9657C70.5694 14.1696 72.0206 14.2402 73.4132 14.3383C74.8168 14.4372 76.1637 14.5641 77.3118 14.8743C78.4595 15.1844 79.3693 15.6675 79.9385 16.4497L80.4237 16.0967ZM66.1606 12.2656C65.3668 11.6879 64.725 10.7418 64.1451 9.5854C63.5658 8.43037 63.0678 7.10802 62.5374 5.79366C62.0113 4.48977 61.454 3.19633 60.7638 2.14355C60.0732 1.09016 59.2285 0.244802 58.1127 -0.117386L57.9274 0.453301C58.8598 0.755946 59.6083 1.47528 60.2621 2.47252C60.9162 3.47037 61.4545 4.71349 61.981 6.01819C62.5033 7.31243 63.0151 8.6707 63.6087 9.85439C64.2017 11.0367 64.896 12.0874 65.8075 12.7507L66.1606 12.2656ZM58.1149 -0.116647C57.7307 -0.244715 57.339 -0.3 56.9376 -0.3V0.3C57.2828 0.3 57.6096 0.347355 57.9252 0.452563L58.1149 -0.116647ZM56.9376 -0.3C55.9173 -0.3 54.8529 0.0649424 53.7876 0.585567C52.7207 1.10704 51.6224 1.80057 50.5368 2.48225C49.4447 3.16804 48.3644 3.84256 47.3106 4.34692C46.2557 4.85189 45.2543 5.17262 44.3222 5.17262V5.77262C45.3845 5.77262 46.4809 5.40928 47.5697 4.88812C48.6597 4.36637 49.7693 3.67274 50.8559 2.99037C51.9491 2.3039 53.0186 1.62927 54.0511 1.12463C55.0854 0.619135 56.0522 0.3 56.9376 0.3V-0.3ZM44.3222 5.17262C43.39 5.17262 42.3887 4.85189 41.3337 4.34692C40.2799 3.84256 39.1996 3.16804 38.1075 2.48225C37.0219 1.80057 35.9236 1.10704 34.8567 0.585567C33.7915 0.0649424 32.727 -0.3 31.7067 -0.3V0.3C32.5922 0.3 33.559 0.619135 34.5932 1.12463C35.6258 1.62927 36.6952 2.3039 37.7884 2.99037C38.8751 3.67274 39.9846 4.36637 41.0746 4.88812C42.1634 5.40928 43.2598 5.77262 44.3222 5.77262V5.17262ZM32.0067 0V0H31.4067V0H32.0067Z" fill="white" mask="url(#path-1-inside-1_85_216)"/>
</svg>
