<svg width="284" height="59" viewBox="0 0 284 59" fill="none" xmlns="http://www.w3.org/2000/svg">
<path d="M72.6137 24.2691C73.6907 22.8629 75.1535 21.7642 77.0092 20.9662C78.865 20.1683 80.9242 19.7693 83.1939 19.7693C85.1584 19.7693 86.951 20.0669 88.5682 20.6588C90.1854 21.2507 91.5324 22.0944 92.6059 23.1932C93.6829 24.292 94.4301 25.5805 94.8545 27.0651L89.368 27.088C89.0803 26.362 88.5962 25.7374 87.9192 25.2175C87.2421 24.6975 86.4809 24.3018 85.632 24.0337C84.783 23.7655 83.9797 23.6314 83.2184 23.6314C82.1169 23.6314 81.047 23.844 80.0051 24.2724C78.9632 24.6975 78.1108 25.3188 77.4513 26.1331C76.7917 26.9474 76.462 27.9056 76.462 29.0109C76.462 30.1162 76.7742 31.0907 77.4021 31.8886C78.0301 32.6866 78.858 33.2948 79.8928 33.7134C80.9242 34.132 82.0362 34.3413 83.2219 34.3413C84.4743 34.3413 85.6635 34.0502 86.7896 33.4649C87.9157 32.8795 88.7576 32.0522 89.3189 30.9795H94.8581C94.402 32.4805 93.6302 33.769 92.5463 34.8514C91.4623 35.9339 90.1257 36.7645 88.5331 37.3498C86.9404 37.9352 85.1619 38.2263 83.1974 38.2263C80.9452 38.2263 78.886 37.824 77.0233 37.0196C75.1605 36.2151 73.6907 35.1098 72.6172 33.7036C71.5367 32.2909 71 30.7277 71 29.0043C71 27.281 71.5367 25.672 72.6137 24.2691Z" fill="white"/>
<path d="M102.299 20.2206V32.1078L114.24 20.2206H119.523V37.7455H114.24V25.8552L102.299 37.7455H97.0401V20.2206H102.299Z" fill="white"/>
<path d="M143.56 20.2174V24.2921H135.379V37.7456H130.093V24.2921H121.81V20.2174H143.56Z" fill="white"/>
<path d="M151.102 20.2206V32.1078L163.043 20.2206H168.327V37.7455H163.043V25.8552L151.102 37.7455H145.844V20.2206H151.102Z" fill="white"/>
<path d="M188.22 20.2206V23.8898H176.255V37.7455H170.996V20.2206H188.22Z" fill="white"/>
<path d="M208.328 20.9532C209.539 21.4437 210.479 22.1239 211.149 23.0003C211.819 23.8767 212.152 24.8905 212.152 26.0448V26.1397C212.152 28.0495 211.496 29.5145 210.184 30.5315C208.872 31.5486 207.013 32.0587 204.606 32.0587H195.689V37.7423H190.406V20.2206H204.15C205.726 20.2206 207.118 20.4659 208.328 20.9564V20.9532ZM205.483 28.3307C205.982 28.2587 206.406 28.0625 206.753 27.7388C207.101 27.415 207.273 26.8918 207.273 26.1626C207.273 25.4333 207.097 24.8807 206.753 24.5406C206.406 24.2005 205.975 23.9912 205.459 23.9127C204.943 23.8342 204.235 23.795 203.337 23.795H202.396C202.007 23.795 201.333 23.7982 200.376 23.808C199.418 23.8146 197.847 23.8211 195.665 23.8211V28.4386H203.337C204.266 28.4386 204.982 28.4026 205.483 28.3307Z" fill="white"/>
<path d="M235.6 20.2206L226.149 35.0934C225.556 36.1039 224.385 36.8234 222.631 37.2485C220.877 37.6736 219.07 37.8567 217.207 37.7946V34.0535C218.309 34.0535 219.049 33.975 219.431 33.8181C219.814 33.6611 220.003 33.4485 220.003 33.1771C220.003 33.0496 219.986 32.9089 219.954 32.752L212.254 20.2206H217.895L223.764 30.3092L229.987 20.2206H235.6Z" fill="white"/>
<path d="M259.104 20.2206V37.7455H253.768V23.8898H242.209V37.7455H236.873V20.2206H259.104Z" fill="white"/>
<path d="M284 20.2206V37.7455H278.664V23.8898H267.105V37.7455H261.77V20.2206H284Z" fill="white"/>
<path d="M57.5001 0V14.5504H14.373C14.373 10.5318 15.983 6.89529 18.5824 4.26015C21.1862 1.6294 24.7794 0 28.7501 0H57.5001Z" fill="white"/>
<path d="M14.3728 14.5503V43.6467C10.4021 43.6467 6.80886 42.0173 4.20943 39.3865C1.61 36.7514 0 33.1149 0 29.0963C0 25.0777 1.61 21.4412 4.20943 18.8104C6.80886 16.1797 10.4021 14.5503 14.3728 14.5503Z" fill="white"/>
<path d="M57.5001 43.6467V58.1927H28.7501C24.7794 58.1927 21.1862 56.5633 18.5824 53.9326C15.983 51.2974 14.373 47.6609 14.373 43.6467H57.5001Z" fill="white"/>
</svg>
