<svg width="208" height="20" viewBox="0 0 208 20" fill="none" xmlns="http://www.w3.org/2000/svg">
<path d="M1.57581 4.79354C2.62749 3.35858 4.056 2.2373 5.86818 1.42305C7.68036 0.608789 9.69123 0.20166 11.9076 0.20166C13.826 0.20166 15.5765 0.505338 17.1558 1.10936C18.735 1.71338 20.0505 2.57435 21.0987 3.69563C22.1504 4.8169 22.8801 6.13172 23.2946 7.64678L17.9368 7.67014C17.6559 6.9293 17.1832 6.29191 16.522 5.7613C15.8609 5.2307 15.1175 4.82691 14.2885 4.55327C13.4595 4.27962 12.675 4.1428 11.9316 4.1428C10.856 4.1428 9.81113 4.35971 8.7937 4.79688C7.77628 5.2307 6.94384 5.86475 6.29981 6.6957C5.65579 7.52664 5.33377 8.50442 5.33377 9.63237C5.33377 10.7603 5.63866 11.7548 6.25185 12.569C6.86505 13.3833 7.67351 14.004 8.68408 14.4311C9.69123 14.8583 10.7772 15.0719 11.935 15.0719C13.158 15.0719 14.3193 14.7749 15.419 14.1775C16.5186 13.5802 17.3408 12.7359 17.8889 11.6413H23.298C22.8527 13.173 22.099 14.4879 21.0405 15.5925C19.982 16.6971 18.6768 17.5447 17.1215 18.142C15.5663 18.7394 13.8294 19.0364 11.9111 19.0364C9.71178 19.0364 7.70091 18.6259 5.88188 17.805C4.06285 16.984 2.62749 15.8561 1.57924 14.4211C0.524128 12.9795 0 11.3844 0 9.62569C0 7.86703 0.524128 6.22516 1.57581 4.79354Z" fill="#272726"/>
<path d="M30.5638 0.662109V12.7925L42.2248 0.662109H47.3839V18.5457H42.2248V6.41197L30.5638 18.5457H25.4287V0.662109H30.5638Z" fill="#272726"/>
<path d="M70.8565 0.658691V4.81674H62.8678V18.5457H57.7053V4.81674H49.6173V0.658691H70.8565Z" fill="#272726"/>
<path d="M78.2219 0.662109V12.7925L89.8829 0.662109H95.0419V18.5457H89.8829V6.41197L78.2219 18.5457H73.0868V0.662109H78.2219Z" fill="#272726"/>
<path d="M114.469 0.662109V4.40636H102.784V18.5457H97.6488V0.662109H114.469Z" fill="#272726"/>
<path d="M134.105 1.40962C135.287 1.91019 136.205 2.60431 136.859 3.49866C137.513 4.39301 137.839 5.42752 137.839 6.60552V6.7023C137.839 8.65118 137.198 10.1462 135.917 11.1841C134.636 12.2219 132.82 12.7425 130.47 12.7425H121.762V18.5424H116.603V0.662109H130.025C131.563 0.662109 132.923 0.912393 134.105 1.41296V1.40962ZM131.327 8.93817C131.813 8.86475 132.228 8.66453 132.567 8.33415C132.906 8.00378 133.074 7.46984 133.074 6.72566C133.074 5.98148 132.902 5.41751 132.567 5.07045C132.228 4.72339 131.806 4.50981 131.303 4.42972C130.799 4.34963 130.107 4.30958 129.23 4.30958H128.312C127.932 4.30958 127.274 4.31292 126.339 4.32293C125.404 4.32961 123.869 4.33628 121.738 4.33628V9.0483H129.23C130.138 9.0483 130.837 9.01159 131.327 8.93817Z" fill="#272726"/>
<path d="M160.736 0.662109L151.507 15.8393C150.928 16.8705 149.784 17.6047 148.071 18.0385C146.358 18.4723 144.594 18.6592 142.775 18.5958V14.7781C143.851 14.7781 144.574 14.698 144.947 14.5379C145.32 14.3777 145.505 14.1608 145.505 13.8838C145.505 13.7536 145.488 13.6101 145.457 13.45L137.938 0.662109H143.447L149.178 10.9571L155.255 0.662109H160.736Z" fill="#272726"/>
<path d="M183.688 0.662109V18.5457H178.478V4.40636H167.19V18.5457H161.98V0.662109H183.688Z" fill="#272726"/>
<path d="M208 0.662109V18.5457H202.79V4.40636H191.502V18.5457H186.292V0.662109H208Z" fill="#272726"/>
</svg>
